<svg xmlns="http://www.w3.org/2000/svg" xmlns:xlink="http://www.w3.org/1999/xlink" width="1080" height="1350" fill="none" viewBox="0 0 1080 1350"><g clip-path="url(#a)"><mask id="b" width="1080" height="1350" x="0" y="0" maskUnits="userSpaceOnUse" style="mask-type:luminance"><path fill="#fff" d="M.266 0H1079.73v1349.33H.266z"/></mask><g mask="url(#b)"><path fill="#fff" d="M.266 0H1079.73v1349.33H.266z"/><path fill="#000" d="M.266 0H1079.73v1349.33H.266z"/></g><mask id="d" width="335" height="199" x="373" y="219" maskUnits="userSpaceOnUse" style="mask-type:luminance"><path fill="url(#c)" d="M373.225 219.636h333.834v197.903H373.225z"/></mask><g mask="url(#d)"><path fill="url(#e)" d="M373.225 219.636h333.834v197.903H373.225z"/></g><mask id="f" width="299" height="448" x="390" y="794" maskUnits="userSpaceOnUse" style="mask-type:luminance"><path fill="#fff" d="M390.87 794.083h297.849v447.247H390.87z"/></mask><g mask="url(#f)"><mask id="h" width="299" height="506" x="390" y="735" maskUnits="userSpaceOnUse" style="mask-type:luminance"><path fill="url(#g)" d="M390.867 735.138H688.72v505.751H390.867z"/></mask><g mask="url(#h)"><path fill="url(#i)" d="M390.867 735.138H688.72v505.751H390.867z"/></g></g></g><defs><pattern id="c" width="1" height="1" patternContentUnits="objectBoundingBox"><use xlink:href="#image0_1_21683" transform="scale(.00065 .0011)"/></pattern><pattern id="e" width="1" height="1" patternContentUnits="objectBoundingBox"><use xlink:href="#image1_1_21683" transform="scale(.00065 .0011)"/></pattern><pattern id="g" width="1" height="1" patternContentUnits="objectBoundingBox"><use xlink:href="#image2_1_21683" transform="scale(.00088 .00052)"/></pattern><pattern id="i" width="1" height="1" patternContentUnits="objectBoundingBox"><use xlink:href="#image3_1_21683" transform="scale(.00088 .00052)"/></pattern><clipPath id="a"><path fill="#fff" d="M0 0h1080v1350H0z"/></clipPath></defs></svg>